<svg xmlns="http://www.w3.org/2000/svg" viewBox="0 0 1200 340" font-family="ui-monospace,'Cascadia Mono','JetBrains Mono',Menlo,Consolas,monospace">
  <defs>
    <radialGradient id="crt" cx="50%" cy="35%" r="85%">
      <stop offset="0%" stop-color="#0b160e"/>
      <stop offset="60%" stop-color="#050805"/>
      <stop offset="100%" stop-color="#030503"/>
    </radialGradient>
    <pattern id="scan" width="4" height="4" patternUnits="userSpaceOnUse">
      <rect width="4" height="4" fill="none"/>
      <rect y="0" width="4" height="1" fill="#000000" opacity="0.35"/>
    </pattern>
    <filter id="halo" x="-40%" y="-40%" width="180%" height="180%">
      <feGaussianBlur stdDeviation="5"/>
    </filter>
    <filter id="glowG" x="-60%" y="-60%" width="220%" height="220%">
      <feGaussianBlur stdDeviation="4" result="b"/>
      <feMerge><feMergeNode in="b"/><feMergeNode in="SourceGraphic"/></feMerge>
    </filter>
  </defs>

  <rect x="1" y="1" width="1198" height="338" rx="14" fill="url(#crt)" stroke="#1d3323" stroke-width="2"/>

  <text x="48" y="42" font-size="13" fill="#4d7058">┌─ ~/lantern ── tty0 ─────────────────────────────────────────────────────────────────────────────────────────────┐</text>

  <!-- ascii lantern, hanging left -->
  <g font-size="15" fill="#3bf07e" filter="url(#glowG)" xml:space="preserve">
    <text x="128" y="102">   ╭─╮   </text>
    <text x="128" y="121">╭──┴─┴──╮</text>
    <text x="128" y="140">│ ╔═══╗ │</text>
    <text x="128" y="159">│ ║ ▲ ║ │</text>
    <text x="128" y="178">│ ║▒█▒║ │</text>
    <text x="128" y="197">│ ╚═══╝ │</text>
    <text x="128" y="216">╰──┬─┬──╯</text>
    <text x="128" y="235">   ╰─╯   </text>
    <animate attributeName="opacity" values="1;0.8;1;0.92;1" dur="3.2s" repeatCount="indefinite"/>
  </g>

  <!-- wordmark: ansi-regular figlet grid, rect-rendered -->
  <g fill="#3bf07e" opacity="0.5" filter="url(#halo)">
    <rect x="310" y="88" width="22" height="21.5"/>
    <rect x="409" y="88" width="55" height="21.5"/>
    <rect x="486" y="88" width="33" height="21.5"/>
    <rect x="563" y="88" width="22" height="21.5"/>
    <rect x="596" y="88" width="88" height="21.5"/>
    <rect x="695" y="88" width="77" height="21.5"/>
    <rect x="783" y="88" width="66" height="21.5"/>
    <rect x="871" y="88" width="33" height="21.5"/>
    <rect x="948" y="88" width="22" height="21.5"/>
    <rect x="310" y="109" width="22" height="21.5"/>
    <rect x="398" y="109" width="22" height="21.5"/>
    <rect x="453" y="109" width="22" height="21.5"/>
    <rect x="486" y="109" width="44" height="21.5"/>
    <rect x="563" y="109" width="22" height="21.5"/>
    <rect x="629" y="109" width="22" height="21.5"/>
    <rect x="695" y="109" width="22" height="21.5"/>
    <rect x="783" y="109" width="22" height="21.5"/>
    <rect x="838" y="109" width="22" height="21.5"/>
    <rect x="871" y="109" width="44" height="21.5"/>
    <rect x="948" y="109" width="22" height="21.5"/>
    <rect x="310" y="130" width="22" height="21.5"/>
    <rect x="398" y="130" width="77" height="21.5"/>
    <rect x="486" y="130" width="22" height="21.5"/>
    <rect x="519" y="130" width="22" height="21.5"/>
    <rect x="563" y="130" width="22" height="21.5"/>
    <rect x="629" y="130" width="22" height="21.5"/>
    <rect x="695" y="130" width="55" height="21.5"/>
    <rect x="783" y="130" width="66" height="21.5"/>
    <rect x="871" y="130" width="22" height="21.5"/>
    <rect x="904" y="130" width="22" height="21.5"/>
    <rect x="948" y="130" width="22" height="21.5"/>
    <rect x="310" y="151" width="22" height="21.5"/>
    <rect x="398" y="151" width="22" height="21.5"/>
    <rect x="453" y="151" width="22" height="21.5"/>
    <rect x="486" y="151" width="22" height="21.5"/>
    <rect x="530" y="151" width="22" height="21.5"/>
    <rect x="563" y="151" width="22" height="21.5"/>
    <rect x="629" y="151" width="22" height="21.5"/>
    <rect x="695" y="151" width="22" height="21.5"/>
    <rect x="783" y="151" width="22" height="21.5"/>
    <rect x="838" y="151" width="22" height="21.5"/>
    <rect x="871" y="151" width="22" height="21.5"/>
    <rect x="915" y="151" width="22" height="21.5"/>
    <rect x="948" y="151" width="22" height="21.5"/>
    <rect x="310" y="172" width="77" height="21.5"/>
    <rect x="398" y="172" width="22" height="21.5"/>
    <rect x="453" y="172" width="22" height="21.5"/>
    <rect x="486" y="172" width="22" height="21.5"/>
    <rect x="541" y="172" width="44" height="21.5"/>
    <rect x="629" y="172" width="22" height="21.5"/>
    <rect x="695" y="172" width="77" height="21.5"/>
    <rect x="783" y="172" width="22" height="21.5"/>
    <rect x="838" y="172" width="22" height="21.5"/>
    <rect x="871" y="172" width="22" height="21.5"/>
    <rect x="926" y="172" width="44" height="21.5"/>
  </g>
  <g fill="#5cff92">
    <rect x="310" y="88" width="22" height="21.5"/>
    <rect x="409" y="88" width="55" height="21.5"/>
    <rect x="486" y="88" width="33" height="21.5"/>
    <rect x="563" y="88" width="22" height="21.5"/>
    <rect x="596" y="88" width="88" height="21.5"/>
    <rect x="695" y="88" width="77" height="21.5"/>
    <rect x="783" y="88" width="66" height="21.5"/>
    <rect x="871" y="88" width="33" height="21.5"/>
    <rect x="948" y="88" width="22" height="21.5"/>
    <rect x="310" y="109" width="22" height="21.5"/>
    <rect x="398" y="109" width="22" height="21.5"/>
    <rect x="453" y="109" width="22" height="21.5"/>
    <rect x="486" y="109" width="44" height="21.5"/>
    <rect x="563" y="109" width="22" height="21.5"/>
    <rect x="629" y="109" width="22" height="21.5"/>
    <rect x="695" y="109" width="22" height="21.5"/>
    <rect x="783" y="109" width="22" height="21.5"/>
    <rect x="838" y="109" width="22" height="21.5"/>
    <rect x="871" y="109" width="44" height="21.5"/>
    <rect x="948" y="109" width="22" height="21.5"/>
    <rect x="310" y="130" width="22" height="21.5"/>
    <rect x="398" y="130" width="77" height="21.5"/>
    <rect x="486" y="130" width="22" height="21.5"/>
    <rect x="519" y="130" width="22" height="21.5"/>
    <rect x="563" y="130" width="22" height="21.5"/>
    <rect x="629" y="130" width="22" height="21.5"/>
    <rect x="695" y="130" width="55" height="21.5"/>
    <rect x="783" y="130" width="66" height="21.5"/>
    <rect x="871" y="130" width="22" height="21.5"/>
    <rect x="904" y="130" width="22" height="21.5"/>
    <rect x="948" y="130" width="22" height="21.5"/>
    <rect x="310" y="151" width="22" height="21.5"/>
    <rect x="398" y="151" width="22" height="21.5"/>
    <rect x="453" y="151" width="22" height="21.5"/>
    <rect x="486" y="151" width="22" height="21.5"/>
    <rect x="530" y="151" width="22" height="21.5"/>
    <rect x="563" y="151" width="22" height="21.5"/>
    <rect x="629" y="151" width="22" height="21.5"/>
    <rect x="695" y="151" width="22" height="21.5"/>
    <rect x="783" y="151" width="22" height="21.5"/>
    <rect x="838" y="151" width="22" height="21.5"/>
    <rect x="871" y="151" width="22" height="21.5"/>
    <rect x="915" y="151" width="22" height="21.5"/>
    <rect x="948" y="151" width="22" height="21.5"/>
    <rect x="310" y="172" width="77" height="21.5"/>
    <rect x="398" y="172" width="22" height="21.5"/>
    <rect x="453" y="172" width="22" height="21.5"/>
    <rect x="486" y="172" width="22" height="21.5"/>
    <rect x="541" y="172" width="44" height="21.5"/>
    <rect x="629" y="172" width="22" height="21.5"/>
    <rect x="695" y="172" width="77" height="21.5"/>
    <rect x="783" y="172" width="22" height="21.5"/>
    <rect x="838" y="172" width="22" height="21.5"/>
    <rect x="871" y="172" width="22" height="21.5"/>
    <rect x="926" y="172" width="44" height="21.5"/>
  </g>

  <text x="660" y="236" font-size="15" fill="#79a886" text-anchor="middle" letter-spacing="5">A PRIVATE CODING AGENT · LOCAL · BYO CEREBRAS KEY</text>

  <g font-size="16">
    <text x="330" y="290" fill="#3bf07e" filter="url(#glowG)">❯</text>
    <text x="352" y="290" fill="#8dffb0">npm start</text>
    <text x="466" y="290" fill="#4d7058">— your files, your key, your call. asks first, every time.</text>
    <text x="1046" y="290" fill="#3bf07e" filter="url(#glowG)">▮
      <animate attributeName="opacity" values="1;1;0;0" keyTimes="0;0.5;0.5;1" dur="1.1s" repeatCount="indefinite" calcMode="discrete"/>
    </text>
  </g>

  <text x="48" y="320" font-size="13" fill="#4d7058">└──────────────────────────────────────────────────────────────────────────────────────── zero deps · one honest caveat ─┘</text>

  <rect x="1" y="1" width="1198" height="338" rx="14" fill="url(#scan)"/>
  <rect x="1" y="1" width="1198" height="338" rx="14" fill="none" stroke="#3bf07e" stroke-opacity="0.12" stroke-width="1"/>
</svg>
