<svg xmlns="http://www.w3.org/2000/svg" viewBox="0 0 1200 340" font-family="ui-monospace,'Cascadia Mono','JetBrains Mono',Menlo,Consolas,monospace">
  <defs>
    <radialGradient id="crt" cx="50%" cy="35%" r="85%">
      <stop offset="0%" stop-color="#0b160e"/>
      <stop offset="60%" stop-color="#050805"/>
      <stop offset="100%" stop-color="#030503"/>
    </radialGradient>
    <pattern id="scan" width="4" height="4" patternUnits="userSpaceOnUse">
      <rect width="4" height="4" fill="none"/>
      <rect y="0" width="4" height="1" fill="#000000" opacity="0.35"/>
    </pattern>
    <filter id="halo" x="-40%" y="-40%" width="180%" height="180%">
      <feGaussianBlur stdDeviation="5"/>
    </filter>
    <filter id="glowG" x="-60%" y="-60%" width="220%" height="220%">
      <feGaussianBlur stdDeviation="4" result="b"/>
      <feMerge><feMergeNode in="b"/><feMergeNode in="SourceGraphic"/></feMerge>
    </filter>
  </defs>

  <rect x="1" y="1" width="1198" height="338" rx="14" fill="url(#crt)" stroke="#1d3323" stroke-width="2"/>

  <text x="48" y="42" font-size="13" fill="#4d7058">┌─ ~/lantern ── tty0 ─────────────────────────────────────────────────────────────────────────────────────────────┐</text>

  <!-- ascii lantern (JAMMSPRITE-style), hanging left -->
  <g filter="url(#glowG)">
  <g font-size="8.4" fill="#3bf07e">
    <text x="172.91" y="70.00" textLength="20.23" lengthAdjust="spacingAndGlyphs">cXXa</text>
    <text x="167.85" y="79.20" textLength="30.34" lengthAdjust="spacingAndGlyphs">e@ee@X</text>
    <text x="167.85" y="88.40" textLength="30.34" lengthAdjust="spacingAndGlyphs">e@ea@X</text>
    <text x="172.91" y="97.60" textLength="20.23" lengthAdjust="spacingAndGlyphs">c@@a</text>
    <text x="152.68" y="106.80" textLength="60.68" lengthAdjust="spacingAndGlyphs">eeeee%@eeeee</text>
    <text x="147.62" y="116.00" textLength="70.80" lengthAdjust="spacingAndGlyphs">#@@@@@@@@@@@@#</text>
    <text x="142.57" y="125.20" textLength="80.91" lengthAdjust="spacingAndGlyphs">*cccccccccccccc*</text>
    <text x="137.51" y="134.40" textLength="91.02" lengthAdjust="spacingAndGlyphs">X@@@@@@@@@@@@@@@@#</text>
    <text x="137.51" y="143.60" textLength="91.02" lengthAdjust="spacingAndGlyphs">a&amp;&amp;%###########&amp;&amp;e</text>
    <text x="137.51" y="152.80" textLength="91.02" lengthAdjust="spacingAndGlyphs">c@@=-----------@@a</text>
    <text x="137.51" y="162.00" textLength="91.02" lengthAdjust="spacingAndGlyphs">c@@+====--=====@@a</text>
    <text x="137.51" y="171.20" textLength="91.02" lengthAdjust="spacingAndGlyphs">c@@+===+=-+====@@a</text>
    <text x="137.51" y="180.40" textLength="20.23" lengthAdjust="spacingAndGlyphs">c@@+</text>
    <text x="183.02" y="180.40" textLength="5.06" lengthAdjust="spacingAndGlyphs">=</text>
    <text x="208.31" y="180.40" textLength="20.23" lengthAdjust="spacingAndGlyphs">=@@a</text>
    <text x="137.51" y="189.60" textLength="20.23" lengthAdjust="spacingAndGlyphs">c@@o</text>
    <text x="213.36" y="189.60" textLength="15.17" lengthAdjust="spacingAndGlyphs">@@a</text>
    <text x="137.51" y="198.80" textLength="20.23" lengthAdjust="spacingAndGlyphs">c@@o</text>
    <text x="213.36" y="198.80" textLength="15.17" lengthAdjust="spacingAndGlyphs">@@a</text>
    <text x="137.51" y="208.00" textLength="20.23" lengthAdjust="spacingAndGlyphs">c@@x</text>
    <text x="213.36" y="208.00" textLength="15.17" lengthAdjust="spacingAndGlyphs">@@a</text>
    <text x="137.51" y="217.20" textLength="20.23" lengthAdjust="spacingAndGlyphs">c@@*</text>
    <text x="213.36" y="217.20" textLength="15.17" lengthAdjust="spacingAndGlyphs">@@a</text>
    <text x="137.51" y="226.40" textLength="20.23" lengthAdjust="spacingAndGlyphs">c@@*</text>
    <text x="213.36" y="226.40" textLength="15.17" lengthAdjust="spacingAndGlyphs">@@a</text>
    <text x="137.51" y="235.60" textLength="20.23" lengthAdjust="spacingAndGlyphs">c@@x</text>
    <text x="213.36" y="235.60" textLength="15.17" lengthAdjust="spacingAndGlyphs">@@a</text>
    <text x="137.51" y="244.80" textLength="20.23" lengthAdjust="spacingAndGlyphs">c@@o</text>
    <text x="213.36" y="244.80" textLength="15.17" lengthAdjust="spacingAndGlyphs">@@a</text>
    <text x="137.51" y="254.00" textLength="20.23" lengthAdjust="spacingAndGlyphs">c@@o</text>
    <text x="213.36" y="254.00" textLength="15.17" lengthAdjust="spacingAndGlyphs">@@a</text>
    <text x="137.51" y="263.20" textLength="91.02" lengthAdjust="spacingAndGlyphs">c@@ooooooooooo+@@a</text>
    <text x="137.51" y="272.40" textLength="91.02" lengthAdjust="spacingAndGlyphs">e&amp;&amp;@@@@@@@@@@@@&amp;&amp;e</text>
    <text x="137.51" y="281.60" textLength="91.02" lengthAdjust="spacingAndGlyphs">a@@@Xaaaaaaaae@@@e</text>
    <text x="142.57" y="290.80" textLength="80.91" lengthAdjust="spacingAndGlyphs">#@@ecccccccce@@%</text>
    <text x="142.57" y="300.00" textLength="80.91" lengthAdjust="spacingAndGlyphs">c%%%%%%%%%%%%%%a</text>
    <text x="162.80" y="309.20" textLength="45.51" lengthAdjust="spacingAndGlyphs">********o</text>
  </g>
    <animate attributeName="opacity" values="1;0.9;1;0.96;1" dur="3.2s" repeatCount="indefinite"/>
  </g>
  <g filter="url(#glowG)">
  <g font-size="8.4" fill="#ffb454">
    <text x="157.74" y="180.40" textLength="25.28" lengthAdjust="spacingAndGlyphs">+ooo=</text>
    <text x="188.08" y="180.40" textLength="20.23" lengthAdjust="spacingAndGlyphs">ooo+</text>
    <text x="157.74" y="189.60" textLength="55.62" lengthAdjust="spacingAndGlyphs">oox*ss*xooo</text>
    <text x="157.74" y="198.80" textLength="55.62" lengthAdjust="spacingAndGlyphs">x*sc@&amp;cs*xo</text>
    <text x="157.74" y="208.00" textLength="55.62" lengthAdjust="spacingAndGlyphs">*ce#&amp;&amp;%ec**</text>
    <text x="157.74" y="217.20" textLength="25.28" lengthAdjust="spacingAndGlyphs">se#&amp;&amp;</text>
    <text x="188.08" y="217.20" textLength="25.28" lengthAdjust="spacingAndGlyphs">&amp;#es*</text>
    <text x="157.74" y="226.40" textLength="20.23" lengthAdjust="spacingAndGlyphs">se&amp;&amp;</text>
    <text x="193.14" y="226.40" textLength="20.23" lengthAdjust="spacingAndGlyphs">&amp;Xs*</text>
    <text x="157.74" y="235.60" textLength="15.17" lengthAdjust="spacingAndGlyphs">*e&amp;</text>
    <text x="193.14" y="235.60" textLength="20.23" lengthAdjust="spacingAndGlyphs">&amp;X**</text>
    <text x="157.74" y="244.80" textLength="20.23" lengthAdjust="spacingAndGlyphs">*s%&amp;</text>
    <text x="188.08" y="244.80" textLength="25.28" lengthAdjust="spacingAndGlyphs">&amp;%s*o</text>
    <text x="157.74" y="254.00" textLength="55.62" lengthAdjust="spacingAndGlyphs">ox*ceec*xoo</text>
  </g>
    <animate attributeName="opacity" values="1;0.78;1;0.9;1" dur="2.1s" repeatCount="indefinite"/>
  </g>
  <g font-size="8.4" fill="#ffe9c4">
    <text x="183.02" y="217.20" textLength="5.06" lengthAdjust="spacingAndGlyphs">&amp;</text>
    <text x="177.97" y="226.40" textLength="15.17" lengthAdjust="spacingAndGlyphs">&amp;&amp;&amp;</text>
    <text x="172.91" y="235.60" textLength="20.23" lengthAdjust="spacingAndGlyphs">&amp;&amp;&amp;&amp;</text>
    <text x="177.97" y="244.80" textLength="10.11" lengthAdjust="spacingAndGlyphs">&amp;&amp;</text>
  </g>

  <!-- wordmark: ansi-regular figlet grid, rect-rendered -->
  <g fill="#3bf07e" opacity="0.5" filter="url(#halo)">
    <rect x="310" y="88" width="22" height="21.5"/>
    <rect x="409" y="88" width="55" height="21.5"/>
    <rect x="486" y="88" width="33" height="21.5"/>
    <rect x="563" y="88" width="22" height="21.5"/>
    <rect x="596" y="88" width="88" height="21.5"/>
    <rect x="695" y="88" width="77" height="21.5"/>
    <rect x="783" y="88" width="66" height="21.5"/>
    <rect x="871" y="88" width="33" height="21.5"/>
    <rect x="948" y="88" width="22" height="21.5"/>
    <rect x="310" y="109" width="22" height="21.5"/>
    <rect x="398" y="109" width="22" height="21.5"/>
    <rect x="453" y="109" width="22" height="21.5"/>
    <rect x="486" y="109" width="44" height="21.5"/>
    <rect x="563" y="109" width="22" height="21.5"/>
    <rect x="629" y="109" width="22" height="21.5"/>
    <rect x="695" y="109" width="22" height="21.5"/>
    <rect x="783" y="109" width="22" height="21.5"/>
    <rect x="838" y="109" width="22" height="21.5"/>
    <rect x="871" y="109" width="44" height="21.5"/>
    <rect x="948" y="109" width="22" height="21.5"/>
    <rect x="310" y="130" width="22" height="21.5"/>
    <rect x="398" y="130" width="77" height="21.5"/>
    <rect x="486" y="130" width="22" height="21.5"/>
    <rect x="519" y="130" width="22" height="21.5"/>
    <rect x="563" y="130" width="22" height="21.5"/>
    <rect x="629" y="130" width="22" height="21.5"/>
    <rect x="695" y="130" width="55" height="21.5"/>
    <rect x="783" y="130" width="66" height="21.5"/>
    <rect x="871" y="130" width="22" height="21.5"/>
    <rect x="904" y="130" width="22" height="21.5"/>
    <rect x="948" y="130" width="22" height="21.5"/>
    <rect x="310" y="151" width="22" height="21.5"/>
    <rect x="398" y="151" width="22" height="21.5"/>
    <rect x="453" y="151" width="22" height="21.5"/>
    <rect x="486" y="151" width="22" height="21.5"/>
    <rect x="530" y="151" width="22" height="21.5"/>
    <rect x="563" y="151" width="22" height="21.5"/>
    <rect x="629" y="151" width="22" height="21.5"/>
    <rect x="695" y="151" width="22" height="21.5"/>
    <rect x="783" y="151" width="22" height="21.5"/>
    <rect x="838" y="151" width="22" height="21.5"/>
    <rect x="871" y="151" width="22" height="21.5"/>
    <rect x="915" y="151" width="22" height="21.5"/>
    <rect x="948" y="151" width="22" height="21.5"/>
    <rect x="310" y="172" width="77" height="21.5"/>
    <rect x="398" y="172" width="22" height="21.5"/>
    <rect x="453" y="172" width="22" height="21.5"/>
    <rect x="486" y="172" width="22" height="21.5"/>
    <rect x="541" y="172" width="44" height="21.5"/>
    <rect x="629" y="172" width="22" height="21.5"/>
    <rect x="695" y="172" width="77" height="21.5"/>
    <rect x="783" y="172" width="22" height="21.5"/>
    <rect x="838" y="172" width="22" height="21.5"/>
    <rect x="871" y="172" width="22" height="21.5"/>
    <rect x="926" y="172" width="44" height="21.5"/>
  </g>
  <g fill="#5cff92">
    <rect x="310" y="88" width="22" height="21.5"/>
    <rect x="409" y="88" width="55" height="21.5"/>
    <rect x="486" y="88" width="33" height="21.5"/>
    <rect x="563" y="88" width="22" height="21.5"/>
    <rect x="596" y="88" width="88" height="21.5"/>
    <rect x="695" y="88" width="77" height="21.5"/>
    <rect x="783" y="88" width="66" height="21.5"/>
    <rect x="871" y="88" width="33" height="21.5"/>
    <rect x="948" y="88" width="22" height="21.5"/>
    <rect x="310" y="109" width="22" height="21.5"/>
    <rect x="398" y="109" width="22" height="21.5"/>
    <rect x="453" y="109" width="22" height="21.5"/>
    <rect x="486" y="109" width="44" height="21.5"/>
    <rect x="563" y="109" width="22" height="21.5"/>
    <rect x="629" y="109" width="22" height="21.5"/>
    <rect x="695" y="109" width="22" height="21.5"/>
    <rect x="783" y="109" width="22" height="21.5"/>
    <rect x="838" y="109" width="22" height="21.5"/>
    <rect x="871" y="109" width="44" height="21.5"/>
    <rect x="948" y="109" width="22" height="21.5"/>
    <rect x="310" y="130" width="22" height="21.5"/>
    <rect x="398" y="130" width="77" height="21.5"/>
    <rect x="486" y="130" width="22" height="21.5"/>
    <rect x="519" y="130" width="22" height="21.5"/>
    <rect x="563" y="130" width="22" height="21.5"/>
    <rect x="629" y="130" width="22" height="21.5"/>
    <rect x="695" y="130" width="55" height="21.5"/>
    <rect x="783" y="130" width="66" height="21.5"/>
    <rect x="871" y="130" width="22" height="21.5"/>
    <rect x="904" y="130" width="22" height="21.5"/>
    <rect x="948" y="130" width="22" height="21.5"/>
    <rect x="310" y="151" width="22" height="21.5"/>
    <rect x="398" y="151" width="22" height="21.5"/>
    <rect x="453" y="151" width="22" height="21.5"/>
    <rect x="486" y="151" width="22" height="21.5"/>
    <rect x="530" y="151" width="22" height="21.5"/>
    <rect x="563" y="151" width="22" height="21.5"/>
    <rect x="629" y="151" width="22" height="21.5"/>
    <rect x="695" y="151" width="22" height="21.5"/>
    <rect x="783" y="151" width="22" height="21.5"/>
    <rect x="838" y="151" width="22" height="21.5"/>
    <rect x="871" y="151" width="22" height="21.5"/>
    <rect x="915" y="151" width="22" height="21.5"/>
    <rect x="948" y="151" width="22" height="21.5"/>
    <rect x="310" y="172" width="77" height="21.5"/>
    <rect x="398" y="172" width="22" height="21.5"/>
    <rect x="453" y="172" width="22" height="21.5"/>
    <rect x="486" y="172" width="22" height="21.5"/>
    <rect x="541" y="172" width="44" height="21.5"/>
    <rect x="629" y="172" width="22" height="21.5"/>
    <rect x="695" y="172" width="77" height="21.5"/>
    <rect x="783" y="172" width="22" height="21.5"/>
    <rect x="838" y="172" width="22" height="21.5"/>
    <rect x="871" y="172" width="22" height="21.5"/>
    <rect x="926" y="172" width="44" height="21.5"/>
  </g>

  <text x="660" y="236" font-size="15" fill="#79a886" text-anchor="middle" letter-spacing="5">A PRIVATE CODING AGENT · RELAYS ACROSS FREE AI TIERS</text>

  <g font-size="16">
    <text x="330" y="290" fill="#3bf07e" filter="url(#glowG)">❯</text>
    <text x="352" y="290" fill="#8dffb0">npm start</text>
    <text x="466" y="290" fill="#4d7058">— your files, your key, your call. asks first, every time.</text>
    <text x="1046" y="290" fill="#3bf07e" filter="url(#glowG)">▮
      <animate attributeName="opacity" values="1;1;0;0" keyTimes="0;0.5;0.5;1" dur="1.1s" repeatCount="indefinite" calcMode="discrete"/>
    </text>
  </g>

  <text x="48" y="320" font-size="13" fill="#4d7058">└──────────────────────────────────────────────────────────────────────────────────────── zero deps · one honest caveat ─┘</text>

  <rect x="1" y="1" width="1198" height="338" rx="14" fill="url(#scan)"/>
  <rect x="1" y="1" width="1198" height="338" rx="14" fill="none" stroke="#3bf07e" stroke-opacity="0.12" stroke-width="1"/>
</svg>
